<svg width="127" height="120" viewBox="0 0 127 120" fill="none" xmlns="http://www.w3.org/2000/svg">
<path d="M44.9804 109.536C33.2897 109.536 24.1164 105.611 17.4604 97.76C10.8044 89.824 7.47638 78.3467 7.47638 63.328C7.47638 55.8187 8.32971 49.2053 10.0364 43.488C11.743 37.7707 14.2177 32.9493 17.4604 29.024C20.703 25.0987 24.6284 22.1547 29.2364 20.192C33.9297 18.144 39.1777 17.12 44.9804 17.12C52.7457 17.12 59.231 18.8267 64.4364 22.24C69.727 25.6533 73.8657 30.688 76.8524 37.344L64.6924 44C63.1564 39.7333 60.767 36.3627 57.5244 33.888C54.367 31.328 50.1857 30.048 44.9804 30.048C38.0684 30.048 32.6497 32.3947 28.7244 37.088C24.799 41.7813 22.8364 48.2667 22.8364 56.544V70.112C22.8364 78.3893 24.799 84.8747 28.7244 89.568C32.6497 94.2613 38.0684 96.608 44.9804 96.608C50.3564 96.608 54.7084 95.2427 58.0364 92.512C61.4497 89.696 63.967 86.112 65.5884 81.76L77.2364 88.8C74.2497 95.2853 70.0684 100.363 64.6924 104.032C59.3164 107.701 52.7457 109.536 44.9804 109.536Z" fill="#31BEF3"/>
<path d="M102.409 84.0404L100.615 88.172C100.335 88.8448 99.8622 89.4195 99.2563 89.8237C98.6503 90.228 97.9384 90.4437 97.2103 90.4437C96.4821 90.4437 95.7702 90.228 95.1643 89.8237C94.5583 89.4195 94.0854 88.8448 93.8051 88.172L92.0113 84.0404C88.8575 76.7313 83.0818 70.8711 75.8238 67.616L70.2895 65.1414C69.618 64.8322 69.0492 64.3367 68.6505 63.7137C68.2518 63.0908 68.0399 62.3664 68.0399 61.6265C68.0399 60.8867 68.2518 60.1623 68.6505 59.5393C69.0492 58.9164 69.618 58.4209 70.2895 58.1117L75.5176 55.7831C82.958 52.4353 88.8326 46.3583 91.9311 38.8039L93.7759 34.3438C94.0469 33.6529 94.5194 33.0598 95.132 32.6417C95.7447 32.2236 96.4689 32 97.2103 32C97.9517 32 98.6759 32.2236 99.2885 32.6417C99.9011 33.0598 100.374 33.6529 100.645 34.3438L102.489 38.7966C105.585 46.3524 111.457 52.432 118.896 55.7831L124.131 58.119C124.801 58.4291 125.367 58.9245 125.764 59.5467C126.162 60.1688 126.373 60.8918 126.373 61.6302C126.373 62.3686 126.162 63.0916 125.764 63.7137C125.367 64.3359 124.801 64.8313 124.131 65.1414L118.589 67.6087C111.333 70.867 105.56 76.7299 102.409 84.0404Z" fill="#FDD849"/>
</svg>
